<svg width="32" height="32" viewBox="0 0 32 32" fill="none" xmlns="http://www.w3.org/2000/svg">
<path d="M10.24 1.91998C5.65283 1.91998 1.92004 5.65277 1.92004 10.24V21.76C1.92004 26.3472 5.65283 30.08 10.24 30.08H21.76C26.3473 30.08 30.08 26.3472 30.08 21.76V10.24C30.08 5.65277 26.3473 1.91998 21.76 1.91998H10.24ZM10.24 3.19998H21.76C25.6554 3.19998 28.8 6.34463 28.8 10.24V21.76C28.8 25.6553 25.6554 28.8 21.76 28.8H10.24C6.34469 28.8 3.20004 25.6553 3.20004 21.76V10.24C3.20004 6.34463 6.34469 3.19998 10.24 3.19998ZM23.68 7.03998C23.3406 7.03998 23.015 7.17484 22.7749 7.41489C22.5349 7.65493 22.4 7.98051 22.4 8.31998C22.4 8.65946 22.5349 8.98503 22.7749 9.22508C23.015 9.46513 23.3406 9.59998 23.68 9.59998C24.0195 9.59998 24.3451 9.46513 24.5851 9.22508C24.8252 8.98503 24.96 8.65946 24.96 8.31998C24.96 7.98051 24.8252 7.65493 24.5851 7.41489C24.3451 7.17484 24.0195 7.03998 23.68 7.03998ZM16 8.95998C12.1195 8.95998 8.96004 12.1195 8.96004 16C8.96004 19.8805 12.1195 23.04 16 23.04C19.8805 23.04 23.04 19.8805 23.04 16C23.04 12.1195 19.8805 8.95998 16 8.95998ZM16 10.24C19.1888 10.24 21.76 12.8112 21.76 16C21.76 19.1887 19.1888 21.76 16 21.76C12.8113 21.76 10.24 19.1887 10.24 16C10.24 12.8112 12.8113 10.24 16 10.24Z" fill="white"/>
</svg>
