<svg width="38" height="38" viewBox="0 0 38 38" fill="none" xmlns="http://www.w3.org/2000/svg">
<g clip-path="url(#clip0_14_70)">
<path d="M19.0154 9.51662C20.3271 9.51662 21.3904 8.4533 21.3904 7.14162C21.3904 5.82995 20.3271 4.76662 19.0154 4.76662C17.7037 4.76662 16.6404 5.82995 16.6404 7.14162C16.6404 8.4533 17.7037 9.51662 19.0154 9.51662Z" fill="white"/>
<path d="M19.0154 33.2666C20.3271 33.2666 21.3904 32.2033 21.3904 30.8916C21.3904 29.5799 20.3271 28.5166 19.0154 28.5166C17.7037 28.5166 16.6404 29.5799 16.6404 30.8916C16.6404 32.2033 17.7037 33.2666 19.0154 33.2666Z" fill="white"/>
<path d="M19.0154 21.3916C20.3271 21.3916 21.3904 20.3283 21.3904 19.0166C21.3904 17.7049 20.3271 16.6416 19.0154 16.6416C17.7037 16.6416 16.6404 17.7049 16.6404 19.0166C16.6404 20.3283 17.7037 21.3916 19.0154 21.3916Z" fill="white"/>
</g>
<defs>
<clipPath id="clip0_14_70">
<rect width="38" height="38" fill="white"/>
</clipPath>
</defs>
</svg>
