<svg width="48" height="48" viewBox="0 0 48 48" fill="none" xmlns="http://www.w3.org/2000/svg">
<path opacity="0.4" d="M24 44.02C35.0456 44.02 44 35.0658 44 24.02C44 12.9743 35.0456 4.02002 24 4.02002C12.9543 4.02002 4 12.9743 4 24.02C4 35.0658 12.9543 44.02 24 44.02Z" fill="white"/>
<path d="M24 13.8799C19.86 13.8799 16.5 17.2399 16.5 21.3798C16.5 25.4398 19.68 28.7398 23.9 28.8598C23.96 28.8598 24.04 28.8598 24.08 28.8598C24.12 28.8598 24.18 28.8598 24.22 28.8598C24.24 28.8598 24.26 28.8598 24.26 28.8598C28.3 28.7198 31.48 25.4398 31.5 21.3798C31.5 17.2399 28.14 13.8799 24 13.8799Z" fill="white"/>
<path d="M37.5614 38.72C34.0014 42 29.2414 44.02 24.0014 44.02C18.7614 44.02 14.0014 42 10.4414 38.72C10.9214 36.9 12.2214 35.24 14.1214 33.96C19.5814 30.32 28.4614 30.32 33.8814 33.96C35.8014 35.24 37.0814 36.9 37.5614 38.72Z" fill="white"/>
</svg>
