<svg width="32" height="32" viewBox="0 0 32 32" fill="none" xmlns="http://www.w3.org/2000/svg">
<path fill-rule="evenodd" clip-rule="evenodd" d="M27.3148 5.11455C27.4195 4.84557 27.1544 4.58056 26.8855 4.68516L4.86843 13.2473C4.59123 13.3552 4.58504 13.7451 4.85868 13.8617L13.3116 17.462C13.8635 17.6971 14.3029 18.1365 14.538 18.6884L18.1383 27.1413C18.2549 27.4149 18.6448 27.4088 18.7527 27.1316L27.3148 5.11455ZM26.1641 2.83023C28.0469 2.09801 29.902 3.95309 29.1697 5.83592L20.6076 27.8529C19.8531 29.7933 17.1231 29.8367 16.3072 27.9212L12.7069 19.4683C12.6733 19.3895 12.6105 19.3267 12.5317 19.2931L4.07876 15.6928C2.16331 14.8769 2.20667 12.147 4.14707 11.3924L26.1641 2.83023Z" fill="white"/>
</svg>
