<svg width="32" height="32" viewBox="0 0 32 32" fill="none" xmlns="http://www.w3.org/2000/svg">
<path fill-rule="evenodd" clip-rule="evenodd" d="M25.695 11.2634C25.8376 10.7881 25.695 10.4554 25.0297 10.4554H22.8119C22.2416 10.4554 21.9881 10.7564 21.8455 11.0891C21.8455 11.0891 20.7208 13.8455 19.1208 15.6198C18.598 16.1426 18.3762 16.301 18.0911 16.301C17.9485 16.301 17.7426 16.1426 17.7426 15.6673V11.2634C17.7426 10.6931 17.5842 10.4554 17.1089 10.4554H13.6238C13.2752 10.4554 13.0535 10.7248 13.0535 10.9624C13.0535 11.501 13.8455 11.6277 13.9406 13.1168V16.3802C13.9406 17.0931 13.8139 17.2198 13.5287 17.2198C12.7842 17.2198 10.9465 14.4634 9.8693 11.295C9.64752 10.7089 9.44158 10.4554 8.87128 10.4554H6.65346C6.0198 10.4554 5.89307 10.7564 5.89307 11.0891C5.89307 11.6752 6.63762 14.5901 9.39406 18.4396C11.2317 21.0693 13.8139 22.495 16.1584 22.495C17.5683 22.495 17.7426 22.1782 17.7426 21.6396V19.6436C17.7426 19.0099 17.8693 18.8832 18.3287 18.8832C18.6614 18.8832 19.2158 19.0416 20.5307 20.3089C22.0356 21.8139 22.2891 22.495 23.1287 22.495H25.3465C25.9802 22.495 26.297 22.1782 26.1069 21.5604C25.901 20.9426 25.1881 20.0396 24.2376 18.9624C23.7148 18.3446 22.9386 17.695 22.7168 17.3624C22.3842 16.9347 22.4792 16.7446 22.7168 16.3802C22.7168 16.3644 25.4257 12.5624 25.695 11.2634Z" fill="white"/>
</svg>
